{"title":"Transformers Dark of the Moon 2011 Cam x264 Feel-Free","uid":6509699,"size":1415686142,"categoryP":"video","categoryS":"movies","magnet":"?xt=urn:btih:93a2f3ea687943380f6bd6587d534bae5559e60e&amp;dn=Transformers+Dark+of+the+Moon+2011+Cam+x264+Feel-Free&amp;tr=udp%3A%2F%2Ftracker.openbittorrent.com%3A80&amp;tr=udp%3A%2F%2Fopen.demonii.com%3A1337&amp;tr=udp%3A%2F%2Ftracker.coppersurfer.tk%3A6969&amp;tr=udp%3A%2F%2Fexodus.desync.com%3A6969","seeders":1,"leechers":0,"uploader":".BONE.","files":10,"time":1309572945,"description":"\nGenre:Action | Adventure | Sci-Fi\nLanguage:English\nIMDb:http://www.imdb.com/title/tt1399103/\nSource:TS.RELIZLAB/SpankMySeedBox CamRip XviD Thanks!\n\nFormat : MPEG-4\nFormat profile : Base Media\nCodec ID : isom\nFile size : 1.32 GiB\nDuration : 2h 11mn\nOverall bit rate : 1 432 Kbps\n\nVideo\nID : 1\nFormat : AVC\nFormat/Info : Advanced Video Codec\nFormat profile : &lt;a class=&quot;__cf_email__&quot; href=&quot;/cdn-cgi/l/email-protection&quot; data-cfemail=&quot;6b23020c032b275f455a&quot;&gt;[email&amp;#160;protected]&lt;/a&gt;&lt;script cf-hash='f9e31' type=&quot;text/javascript&quot;&gt;\n/* &lt;![CDATA[ */!function(){try{var t=&quot;currentScript&quot;in document?document.currentScript:function(){for(var t=document.getElementsByTagName(&quot;script&quot;),e=t.length;e--;)if(t[e].getAttribute(&quot;cf-hash&quot;))return t[e]}();if(t&amp;&amp;t.previousSibling){var e,r,n,i,c=t.previousSibling,a=c.getAttribute(&quot;data-cfemail&quot;);if(a){for(e=&quot;&quot;,r=parseInt(a.substr(0,2),16),n=2;a.length-n;n+=2)i=parseInt(a.substr(n,2),16)^r,e+=String.fromCharCode(i);e=document.createTextNode(e),c.parentNode.replaceChild(e,c)}}}catch(u){}}();/* ]]&gt; */&lt;/script&gt;\nFormat settings, CABAC : Yes\nFormat settings, ReFrames : 3 frames\nCodec ID : avc1\nCodec ID/Info : Advanced Video Coding\nDuration : 2h 11mn\nBit rate mode : Variable\nBit rate : 1 200 Kbps\nMaximum bit rate : 5 251 Kbps\nWidth : 720 pixels\nHeight : 304 pixels\nDisplay aspect ratio : 2.35:1\nFrame rate mode : Constant\nFrame rate : 25.000 fps\nColor space : YUV\nChroma subsampling : 4:2:0\nBit depth : 8 bits\nScan type : Progressive\nBits/(Pixel*Frame) : 0.219\nStream size : 1.11 GiB (84%)\nWriting library : x264\n\nAudio\nID : 2\nFormat : AAC\nFormat/Info : Advanced Audio Codec\nFormat version : Version 4\nFormat profile : LC\nFormat settings, SBR : No\nCodec ID : 40\nDuration : 2h 11mn\nBit rate mode : Variable\nBit rate : 224 Kbps\nMaximum bit rate : 276 Kbps\nChannel(s) : 2 channels\nChannel positions : Front: L R\nSampling rate : 48.0 KHz\nStream size : 211 MiB (16%)\n\n\nPlot:\nThe Autobots learn of a Cybertronian spacecraft hidden on the Moon, and race against the Decepticons to reach it and to learn its secrets\n &lt;a href=&quot;\nhttp://leetleech.org/images/56049888661284994051.png&quot; rel=&quot;nofollow&quot; target=&quot;_NEW&quot;&gt;\nhttp://leetleech.org/images/56049888661284994051.png&lt;/a&gt;\n &lt;a href=&quot;\nhttp://leetleech.org/images/24285448791868952489.png&quot; rel=&quot;nofollow&quot; target=&quot;_NEW&quot;&gt;\nhttp://leetleech.org/images/24285448791868952489.png&lt;/a&gt;\n &lt;a href=&quot;\nhttp://leetleech.org/images/52484647044650884413.png&quot; rel=&quot;nofollow&quot; target=&quot;_NEW&quot;&gt;\nhttp://leetleech.org/images/52484647044650884413.png&lt;/a&gt;\n &lt;a href=&quot;\nhttp://leetleech.org/images/69398567310449626299.png&quot; rel=&quot;nofollow&quot; target=&quot;_NEW&quot;&gt;\nhttp://leetleech.org/images/69398567310449626299.png&lt;/a&gt;\n &lt;a href=&quot;\nhttp://leetleech.org/images/31003349826166154821.png&quot; rel=&quot;nofollow&quot; target=&quot;_NEW&quot;&gt;\nhttp://leetleech.org/images/31003349826166154821.png&lt;/a&gt;\n &lt;a href=&quot;\nhttp://leetleech.org/images/95796069327212215833.png&quot; rel=&quot;nofollow&quot; target=&quot;_NEW&quot;&gt;\nhttp://leetleech.org/images/95796069327212215833.png&lt;/a&gt;","torrent":{"xt":"urn:btih:93a2f3ea687943380f6bd6587d534bae5559e60e","amp;dn":"Transformers+Dark+of+the+Moon+2011+Cam+x264+Feel-Free","amp;tr":["udp%3A%2F%2Ftracker.openbittorrent.com%3A80","udp%3A%2F%2Fopen.demonii.com%3A1337","udp%3A%2F%2Ftracker.coppersurfer.tk%3A6969","udp%3A%2F%2Fexodus.desync.com%3A6969"],"infoHash":"93a2f3ea687943380f6bd6587d534bae5559e60e","infoHashBuffer":{"type":"Buffer","data":[147,162,243,234,104,121,67,56,15,107,214,88,125,83,75,174,85,89,230,14]},"announce":[],"urlList":[]}}